# Blender v2.93.6 OBJ File: 'axis.blend'
# www.blender.org
mtllib axis.mtl
o Cylinder_Cylinder.001
v 0.000000 0.010887 0.021821
v 0.000000 0.824417 0.021821
v -0.015430 0.010887 0.015430
v -0.015430 0.824417 0.015430
v -0.021821 0.010887 -0.000000
v -0.021821 0.824417 -0.000000
v -0.015430 0.010887 -0.015430
v -0.015430 0.824417 -0.015430
v 0.000000 0.010887 -0.021821
v 0.000000 0.824417 -0.021821
v 0.015430 0.010887 -0.015430
v 0.015430 0.824417 -0.015430
v 0.021821 0.010887 0.000000
v 0.021821 0.824417 0.000000
v 0.015430 0.010887 0.015430
v 0.015430 0.824417 0.015430
v -0.000000 0.778748 0.092784
v -0.065609 0.778748 0.065609
v -0.092784 0.778748 -0.000000
v -0.065609 0.778748 -0.065609
v -0.000000 0.778748 -0.092784
v 0.065608 0.778748 -0.065609
v 0.092784 0.778748 0.000000
v 0.065608 0.778748 0.065608
v -0.000000 1.007523 -0.000000
vt 1.000000 0.500000
vt 1.000000 1.000000
vt 0.875000 1.000000
vt 0.875000 0.500000
vt 0.750000 1.000000
vt 0.750000 0.500000
vt 0.625000 1.000000
vt 0.625000 0.500000
vt 0.500000 1.000000
vt 0.500000 0.500000
vt 0.375000 1.000000
vt 0.375000 0.500000
vt 0.250000 1.000000
vt 0.250000 0.500000
vt 0.375000 1.000000
vt 0.250000 1.000000
vt 0.125000 1.000000
vt 0.125000 0.500000
vt 0.000000 1.000000
vt 0.000000 0.500000
vt 0.750000 0.490000
vt 0.919706 0.419706
vt 0.990000 0.250000
vt 0.919706 0.080294
vt 0.750000 0.010000
vt 0.580294 0.080294
vt 0.510000 0.250000
vt 0.580294 0.419706
vt 0.500000 1.000000
vt 0.375000 1.000000
vt 0.625000 1.000000
vt 0.125000 1.000000
vt 0.875000 1.000000
vt 0.750000 1.000000
vt 0.000000 1.000000
vt 1.000000 1.000000
vt 0.625000 1.000000
vt 0.875000 1.000000
vt 0.000000 1.000000
vt 0.250000 1.000000
vt 0.500000 1.000000
vt 0.750000 1.000000
vt 0.125000 1.000000
vn -0.3827 0.0000 0.9239
vn -0.9239 0.0000 0.3827
vn -0.9239 0.0000 -0.3827
vn -0.3827 0.0000 -0.9239
vn 0.3827 0.0000 -0.9239
vn 0.9239 0.0000 -0.3827
vn -0.5281 -0.8205 0.2187
vn 0.9239 0.0000 0.3827
vn 0.3827 0.0000 0.9239
vn 0.0000 -1.0000 0.0000
vn 0.3584 0.3509 -0.8651
vn 0.2187 -0.8205 0.5281
vn -0.5281 -0.8205 -0.2187
vn 0.5281 -0.8205 -0.2187
vn -0.2187 -0.8205 0.5281
vn -0.2187 -0.8205 -0.5281
vn 0.2187 -0.8205 -0.5281
vn 0.5281 -0.8205 0.2187
vn -0.8651 0.3509 -0.3584
vn -0.3584 0.3509 0.8651
vn 0.3584 0.3509 0.8651
vn 0.8651 0.3509 -0.3584
vn -0.3584 0.3509 -0.8651
vn -0.8651 0.3509 0.3584
vn 0.8651 0.3509 0.3584
usemtl Material.002
s off
f 1/1/1 2/2/1 4/3/1 3/4/1
f 3/4/2 4/3/2 6/5/2 5/6/2
f 5/6/3 6/5/3 8/7/3 7/8/3
f 7/8/4 8/7/4 10/9/4 9/10/4
f 9/10/5 10/9/5 12/11/5 11/12/5
f 11/12/6 12/11/6 14/13/6 13/14/6
f 14/13/7 12/11/7 22/15/7 23/16/7
f 13/14/8 14/13/8 16/17/8 15/18/8
f 15/18/9 16/17/9 2/19/9 1/20/9
f 1/21/10 3/22/10 5/23/10 7/24/10 9/25/10 11/26/10 13/27/10 15/28/10
f 22/15/11 21/29/11 25/30/11
f 10/9/12 8/7/12 20/31/12 21/29/12
f 16/17/13 14/13/13 23/16/13 24/32/13
f 6/5/14 4/3/14 18/33/14 19/34/14
f 12/11/15 10/9/15 21/29/15 22/15/15
f 2/19/16 16/17/16 24/32/16 17/35/16
f 4/3/17 2/2/17 17/36/17 18/33/17
f 8/7/18 6/5/18 19/34/18 20/31/18
f 20/31/19 19/34/19 25/37/19
f 18/33/20 17/36/20 25/38/20
f 17/35/21 24/32/21 25/39/21
f 23/16/22 22/15/22 25/40/22
f 21/29/23 20/31/23 25/41/23
f 19/34/24 18/33/24 25/42/24
f 24/32/25 23/16/25 25/43/25
o Cylinder.001_Cylinder.002
v 0.000000 0.021821 -0.010887
v 0.000000 0.021821 -0.824417
v -0.015430 0.015430 -0.010887
v -0.015430 0.015430 -0.824417
v -0.021821 -0.000000 -0.010887
v -0.021821 -0.000000 -0.824417
v -0.015430 -0.015430 -0.010887
v -0.015430 -0.015430 -0.824417
v 0.000000 -0.021821 -0.010887
v 0.000000 -0.021821 -0.824417
v 0.015430 -0.015430 -0.010887
v 0.015430 -0.015430 -0.824417
v 0.021821 -0.000000 -0.010887
v 0.021821 -0.000000 -0.824417
v 0.015430 0.015430 -0.010887
v 0.015430 0.015430 -0.824417
v -0.000000 0.092784 -0.778748
v -0.065609 0.065608 -0.778748
v -0.092784 -0.000000 -0.778748
v -0.065609 -0.065609 -0.778748
v -0.000000 -0.092784 -0.778748
v 0.065608 -0.065609 -0.778748
v 0.092784 -0.000000 -0.778748
v 0.065608 0.065608 -0.778748
v -0.000000 -0.000000 -1.007523
vt 1.000000 0.500000
vt 1.000000 1.000000
vt 0.875000 1.000000
vt 0.875000 0.500000
vt 0.750000 1.000000
vt 0.750000 0.500000
vt 0.625000 1.000000
vt 0.625000 0.500000
vt 0.500000 1.000000
vt 0.500000 0.500000
vt 0.375000 1.000000
vt 0.375000 0.500000
vt 0.250000 1.000000
vt 0.250000 0.500000
vt 0.375000 1.000000
vt 0.250000 1.000000
vt 0.125000 1.000000
vt 0.125000 0.500000
vt 0.000000 1.000000
vt 0.000000 0.500000
vt 0.750000 0.490000
vt 0.919706 0.419706
vt 0.990000 0.250000
vt 0.919706 0.080294
vt 0.750000 0.010000
vt 0.580294 0.080294
vt 0.510000 0.250000
vt 0.580294 0.419706
vt 0.500000 1.000000
vt 0.375000 1.000000
vt 0.625000 1.000000
vt 0.125000 1.000000
vt 0.875000 1.000000
vt 0.750000 1.000000
vt 0.000000 1.000000
vt 1.000000 1.000000
vt 0.625000 1.000000
vt 0.875000 1.000000
vt 0.000000 1.000000
vt 0.250000 1.000000
vt 0.500000 1.000000
vt 0.750000 1.000000
vt 0.125000 1.000000
vn -0.3827 0.9239 -0.0000
vn -0.9239 0.3827 -0.0000
vn -0.9239 -0.3827 0.0000
vn -0.3827 -0.9239 0.0000
vn 0.3827 -0.9239 0.0000
vn 0.9239 -0.3827 0.0000
vn -0.5281 0.2187 0.8205
vn 0.9239 0.3827 -0.0000
vn 0.3827 0.9239 -0.0000
vn 0.0000 0.0000 1.0000
vn 0.3584 -0.8651 -0.3509
vn 0.2187 0.5281 0.8205
vn -0.5281 -0.2187 0.8205
vn 0.5281 -0.2187 0.8205
vn -0.2187 0.5281 0.8205
vn -0.2187 -0.5281 0.8205
vn 0.2187 -0.5281 0.8205
vn 0.5281 0.2187 0.8205
vn -0.8651 -0.3584 -0.3509
vn -0.3584 0.8651 -0.3509
vn 0.3584 0.8651 -0.3509
vn 0.8651 -0.3584 -0.3509
vn -0.3584 -0.8651 -0.3509
vn -0.8651 0.3584 -0.3509
vn 0.8651 0.3584 -0.3509
usemtl Material.003
s off
f 26/44/26 27/45/26 29/46/26 28/47/26
f 28/47/27 29/46/27 31/48/27 30/49/27
f 30/49/28 31/48/28 33/50/28 32/51/28
f 32/51/29 33/50/29 35/52/29 34/53/29
f 34/53/30 35/52/30 37/54/30 36/55/30
f 36/55/31 37/54/31 39/56/31 38/57/31
f 39/56/32 37/54/32 47/58/32 48/59/32
f 38/57/33 39/56/33 41/60/33 40/61/33
f 40/61/34 41/60/34 27/62/34 26/63/34
f 26/64/35 28/65/35 30/66/35 32/67/35 34/68/35 36/69/35 38/70/35 40/71/35
f 47/58/36 46/72/36 50/73/36
f 35/52/37 33/50/37 45/74/37 46/72/37
f 41/60/38 39/56/38 48/59/38 49/75/38
f 31/48/39 29/46/39 43/76/39 44/77/39
f 37/54/40 35/52/40 46/72/40 47/58/40
f 27/62/41 41/60/41 49/75/41 42/78/41
f 29/46/42 27/45/42 42/79/42 43/76/42
f 33/50/43 31/48/43 44/77/43 45/74/43
f 45/74/44 44/77/44 50/80/44
f 43/76/45 42/79/45 50/81/45
f 42/78/46 49/75/46 50/82/46
f 48/59/47 47/58/47 50/83/47
f 46/72/48 45/74/48 50/84/48
f 44/77/49 43/76/49 50/85/49
f 49/75/50 48/59/50 50/86/50
o Cylinder.002_Cylinder.003
v 0.010887 0.021821 0.000000
v 0.824417 0.021821 0.000000
v 0.010887 0.015430 -0.015430
v 0.824417 0.015430 -0.015430
v 0.010887 -0.000000 -0.021821
v 0.824417 -0.000000 -0.021821
v 0.010887 -0.015430 -0.015430
v 0.824417 -0.015430 -0.015430
v 0.010887 -0.021821 0.000000
v 0.824417 -0.021821 0.000000
v 0.010887 -0.015430 0.015430
v 0.824417 -0.015430 0.015430
v 0.010887 -0.000000 0.021821
v 0.824417 -0.000000 0.021821
v 0.010887 0.015430 0.015430
v 0.824417 0.015430 0.015430
v 0.778748 0.092784 0.000000
v 0.778748 0.065608 -0.065608
v 0.778748 -0.000000 -0.092784
v 0.778748 -0.065609 -0.065608
v 0.778748 -0.092784 0.000000
v 0.778748 -0.065609 0.065609
v 0.778748 -0.000000 0.092784
v 0.778748 0.065608 0.065609
v 1.007523 -0.000000 -0.000000
vt 1.000000 0.500000
vt 1.000000 1.000000
vt 0.875000 1.000000
vt 0.875000 0.500000
vt 0.750000 1.000000
vt 0.750000 0.500000
vt 0.625000 1.000000
vt 0.625000 0.500000
vt 0.500000 1.000000
vt 0.500000 0.500000
vt 0.375000 1.000000
vt 0.375000 0.500000
vt 0.250000 1.000000
vt 0.250000 0.500000
vt 0.375000 1.000000
vt 0.250000 1.000000
vt 0.125000 1.000000
vt 0.125000 0.500000
vt 0.000000 1.000000
vt 0.000000 0.500000
vt 0.750000 0.490000
vt 0.919706 0.419706
vt 0.990000 0.250000
vt 0.919706 0.080294
vt 0.750000 0.010000
vt 0.580294 0.080294
vt 0.510000 0.250000
vt 0.580294 0.419706
vt 0.500000 1.000000
vt 0.375000 1.000000
vt 0.625000 1.000000
vt 0.125000 1.000000
vt 0.875000 1.000000
vt 0.750000 1.000000
vt 0.000000 1.000000
vt 1.000000 1.000000
vt 0.625000 1.000000
vt 0.875000 1.000000
vt 0.000000 1.000000
vt 0.250000 1.000000
vt 0.500000 1.000000
vt 0.750000 1.000000
vt 0.125000 1.000000
vn 0.0000 0.9239 -0.3827
vn 0.0000 0.3827 -0.9239
vn 0.0000 -0.3827 -0.9239
vn -0.0000 -0.9239 -0.3827
vn -0.0000 -0.9239 0.3827
vn -0.0000 -0.3827 0.9239
vn -0.8205 0.2187 -0.5281
vn -0.0000 0.3827 0.9239
vn 0.0000 0.9239 0.3827
vn -1.0000 0.0000 -0.0000
vn 0.3509 -0.8651 0.3584
vn -0.8205 0.5281 0.2187
vn -0.8205 -0.2187 -0.5281
vn -0.8205 -0.2187 0.5281
vn -0.8205 0.5281 -0.2187
vn -0.8205 -0.5281 -0.2187
vn -0.8205 -0.5281 0.2187
vn -0.8205 0.2187 0.5281
vn 0.3509 -0.3584 -0.8651
vn 0.3509 0.8651 -0.3584
vn 0.3509 0.8651 0.3584
vn 0.3509 -0.3584 0.8651
vn 0.3509 -0.8651 -0.3584
vn 0.3509 0.3584 -0.8651
vn 0.3509 0.3584 0.8651
usemtl Material.001
s off
f 51/87/51 52/88/51 54/89/51 53/90/51
f 53/90/52 54/89/52 56/91/52 55/92/52
f 55/92/53 56/91/53 58/93/53 57/94/53
f 57/94/54 58/93/54 60/95/54 59/96/54
f 59/96/55 60/95/55 62/97/55 61/98/55
f 61/98/56 62/97/56 64/99/56 63/100/56
f 64/99/57 62/97/57 72/101/57 73/102/57
f 63/100/58 64/99/58 66/103/58 65/104/58
f 65/104/59 66/103/59 52/105/59 51/106/59
f 51/107/60 53/108/60 55/109/60 57/110/60 59/111/60 61/112/60 63/113/60 65/114/60
f 72/101/61 71/115/61 75/116/61
f 60/95/62 58/93/62 70/117/62 71/115/62
f 66/103/63 64/99/63 73/102/63 74/118/63
f 56/91/64 54/89/64 68/119/64 69/120/64
f 62/97/65 60/95/65 71/115/65 72/101/65
f 52/105/66 66/103/66 74/118/66 67/121/66
f 54/89/67 52/88/67 67/122/67 68/119/67
f 58/93/68 56/91/68 69/120/68 70/117/68
f 70/117/69 69/120/69 75/123/69
f 68/119/70 67/122/70 75/124/70
f 67/121/71 74/118/71 75/125/71
f 73/102/72 72/101/72 75/126/72
f 71/115/73 70/117/73 75/127/73
f 69/120/74 68/119/74 75/128/74
f 74/118/75 73/102/75 75/129/75
o Sphere
v 0.000000 -0.000000 -0.076171
v 0.000000 -0.053861 -0.053861
v 0.053861 0.053861 0.000000
v 0.076171 -0.000000 0.000000
v 0.053861 -0.053861 0.000000
v -0.000000 0.076171 0.000000
v -0.000000 0.053861 0.053861
v -0.000000 -0.000000 0.076171
v -0.000000 -0.053861 0.053861
v 0.000000 -0.076171 0.000000
v -0.053861 0.053861 -0.000000
v -0.076171 -0.000000 -0.000000
v -0.053861 -0.053861 -0.000000
v 0.000000 0.053861 -0.053861
vt 0.625000 0.000000
vt 0.750000 0.250000
vt 0.500000 0.250000
vt 0.750000 0.500000
vt 0.750000 0.750000
vt 0.500000 0.750000
vt 0.500000 0.500000
vt 0.625000 1.000000
vt 0.250000 0.750000
vt 0.250000 0.500000
vt 0.250000 0.250000
vt 0.375000 1.000000
vt 0.375000 0.000000
vt 0.125000 0.000000
vt 0.000000 0.250000
vt 0.000000 0.750000
vt 0.000000 0.500000
vt 0.125000 1.000000
vt 0.875000 0.000000
vt 1.000000 0.250000
vt 1.000000 0.500000
vt 1.000000 0.750000
vt 0.875000 1.000000
vn 0.3574 -0.8629 -0.3574
vn 0.6786 0.2811 -0.6786
vn 0.6786 -0.2811 -0.6786
vn 0.3574 0.8629 -0.3574
vn 0.6786 0.2811 0.6786
vn 0.6786 -0.2811 0.6786
vn 0.3574 0.8629 0.3574
vn 0.3574 -0.8629 0.3574
vn -0.3574 -0.8629 0.3574
vn -0.6786 0.2811 0.6786
vn -0.6786 -0.2811 0.6786
vn -0.3574 0.8629 0.3574
vn -0.3574 -0.8629 -0.3574
vn -0.6786 0.2811 -0.6786
vn -0.6786 -0.2811 -0.6786
vn -0.3574 0.8629 -0.3574
usemtl Material.004
s off
f 85/130/76 77/131/76 80/132/76
f 76/133/77 89/134/77 78/135/77 79/136/77
f 77/131/78 76/133/78 79/136/78 80/132/78
f 89/134/79 81/137/79 78/135/79
f 79/136/80 78/135/80 82/138/80 83/139/80
f 80/132/81 79/136/81 83/139/81 84/140/81
f 78/135/82 81/141/82 82/138/82
f 85/142/83 80/132/83 84/140/83
f 85/143/84 84/140/84 88/144/84
f 83/139/85 82/138/85 86/145/85 87/146/85
f 84/140/86 83/139/86 87/146/86 88/144/86
f 82/138/87 81/147/87 86/145/87
f 85/148/88 88/149/88 77/131/88
f 87/150/89 86/151/89 89/134/89 76/133/89
f 88/149/90 87/150/90 76/133/90 77/131/90
f 86/151/91 81/152/91 89/134/91
o Plane
v -1.000000 0.000000 1.000000
v 1.000000 0.000000 1.000000
v -1.000000 0.000000 -1.000000
v 1.000000 0.000000 -1.000000
vt 0.000000 0.000000
vt 1.000000 0.000000
vt 1.000000 1.000000
vt 0.000000 1.000000
vn 0.0000 1.0000 0.0000
usemtl Material.005
s off
f 90/153/92 91/154/92 93/155/92 92/156/92
