# Blender v2.93.6 OBJ File: 'f1_parts.blend'
# www.blender.org
mtllib materials.mtl
o Plane_Plane.010
v -0.980785 -0.088019 -0.014952
v 0.980800 -0.088019 -0.014952
v -0.980785 -0.101399 -0.208734
v 0.980800 -0.101399 -0.208734
v 0.000007 -0.095330 -0.197481
v 0.000007 -0.099448 -0.422568
v -0.138313 -0.099448 -0.391263
v -0.138313 -0.095330 -0.197481
v 0.138328 -0.095330 -0.197481
v 0.138328 -0.099448 -0.391263
v 0.563294 -0.088019 -0.150833
v 0.563294 -0.101399 -0.344614
v -0.559553 -0.101399 -0.345423
v -0.559553 -0.088019 -0.151641
v -0.980785 -0.053183 0.093626
v 0.980800 -0.053183 0.093626
v -0.980785 -0.066562 -0.100156
v 0.980800 -0.066562 -0.100156
v 0.000007 -0.084131 -0.088903
v 0.000007 -0.088249 -0.282685
v -0.138313 -0.088249 -0.282685
v -0.138313 -0.084131 -0.088903
v 0.138328 -0.084131 -0.088903
v 0.138328 -0.088249 -0.282685
v 0.563294 -0.053183 -0.042254
v 0.563294 -0.066562 -0.236036
v -0.559553 -0.066562 -0.236845
v -0.559553 -0.053183 -0.043063
v -0.980785 -0.002860 0.243421
v 0.980800 -0.002860 0.243421
v -0.980785 -0.016239 0.049639
v 0.980800 -0.016239 0.049639
v 0.000007 -0.067954 0.060892
v 0.000007 -0.072072 -0.132890
v -0.138313 -0.072072 -0.132890
v -0.138313 -0.067954 0.060892
v 0.138328 -0.067954 0.060892
v 0.138328 -0.072072 -0.132890
v 0.504981 -0.002860 0.107541
v 0.504981 -0.016239 -0.086241
v -0.501232 -0.016239 -0.087050
v -0.501232 -0.002860 0.106732
v -0.980785 0.041341 0.360841
v 0.980800 0.041341 0.360841
v -0.980785 0.027962 0.167060
v 0.980800 0.027962 0.167060
v 0.000007 -0.053745 0.178312
v 0.000007 -0.057863 -0.015469
v -0.138313 -0.057863 -0.015469
v -0.138313 -0.053745 0.178312
v 0.138328 -0.053745 0.178312
v 0.138328 -0.057863 -0.015469
v 0.428970 0.041341 0.224961
v 0.428970 0.027962 0.031179
v -0.425221 0.027962 0.030371
v -0.425221 0.041341 0.224152
v 0.984055 0.130346 0.422568
v 0.984055 -0.090011 0.379082
v 0.984055 -0.044026 -0.306991
v 0.984055 -0.130347 -0.279951
v -0.983502 0.130346 0.422568
v -0.983502 -0.090011 0.379082
v -0.983502 -0.044026 -0.306991
v -0.983502 -0.130347 -0.279951
vn 0.0084 0.9976 -0.0688
vn 0.0224 0.9973 -0.0688
vn 0.0066 0.9980 -0.0617
vn 0.0000 0.9998 -0.0201
vn -0.0046 0.9998 -0.0202
vn -0.0013 0.9996 -0.0278
vn -0.0065 0.9980 -0.0616
vn -0.0083 0.9976 -0.0688
vn 0.0046 0.9998 -0.0202
vn 0.0000 0.9998 -0.0183
vn 0.0013 0.9996 -0.0277
vn -0.0223 0.9974 -0.0688
vn -0.0157 0.9975 -0.0688
vn -0.0252 0.9978 -0.0617
vn 0.0000 0.9998 -0.0212
vn 0.0237 0.9995 -0.0212
vn 0.0276 0.9992 -0.0278
vn 0.0255 0.9977 -0.0616
vn 0.0161 0.9975 -0.0688
vn -0.0274 0.9992 -0.0277
vn -0.0234 0.9995 -0.0212
vn -0.0617 0.9957 -0.0687
vn 0.0197 0.9974 -0.0688
vn -0.0833 0.9947 -0.0607
vn 0.0717 0.9972 -0.0212
vn 0.0808 0.9963 -0.0285
vn 0.0842 0.9946 -0.0606
vn 0.0626 0.9957 -0.0687
vn -0.0799 0.9964 -0.0284
vn -0.0710 0.9972 -0.0212
vn -0.0196 0.9974 -0.0688
vn -0.1230 0.9900 -0.0683
vn 0.0169 0.9975 -0.0688
vn -0.1612 0.9852 -0.0588
vn 0.1357 0.9905 -0.0210
vn 0.1541 0.9876 -0.0295
vn 0.1632 0.9848 -0.0587
vn 0.1247 0.9898 -0.0683
vn -0.1522 0.9879 -0.0294
vn -0.1339 0.9908 -0.0210
vn -0.0169 0.9975 -0.0688
vn 1.0000 0.0000 0.0000
usemtl Wing
s 1
f 11//1 4//2 12//3
f 5//4 7//5 8//6
f 8//6 13//7 14//8
f 5//4 10//9 6//10
f 9//11 12//3 10//9
f 14//8 3//12 1//12
f 25//13 18//2 26//14
f 19//15 21//16 22//17
f 22//17 27//18 28//19
f 23//20 20//15 19//15
f 23//20 26//14 24//21
f 28//19 17//12 15//12
f 39//22 32//23 40//24
f 33//15 35//25 36//26
f 36//26 41//27 42//28
f 37//29 34//15 33//15
f 37//29 40//24 38//30
f 42//28 31//31 29//31
f 53//32 46//33 54//34
f 47//15 49//35 50//36
f 50//36 55//37 56//38
f 51//39 48//15 47//15
f 51//39 54//34 52//40
f 56//38 45//41 43//41
f 57//42 60//42 59//42
f 61//42 64//42 63//42
f 11//1 2//2 4//2
f 5//4 6//10 7//5
f 8//6 7//5 13//7
f 5//4 9//11 10//9
f 9//11 11//1 12//3
f 14//8 13//7 3//12
f 25//13 16//2 18//2
f 19//15 20//15 21//16
f 22//17 21//16 27//18
f 23//20 24//21 20//15
f 23//20 25//13 26//14
f 28//19 27//18 17//12
f 39//22 30//23 32//23
f 33//15 34//15 35//25
f 36//26 35//25 41//27
f 37//29 38//30 34//15
f 37//29 39//22 40//24
f 42//28 41//27 31//31
f 53//32 44//33 46//33
f 47//15 48//15 49//35
f 50//36 49//35 55//37
f 51//39 52//40 48//15
f 51//39 53//32 54//34
f 56//38 55//37 45//41
f 57//42 58//42 60//42
f 61//42 62//42 64//42
o Plane.002_Plane.016
v -0.163206 -0.091020 -0.026891
v -0.163206 0.093672 0.130905
v -0.163206 -0.092413 -0.130905
v -0.163206 0.022702 -0.024162
v 0.163206 -0.091020 -0.026891
v 0.163206 0.093672 0.130905
v 0.163206 -0.092413 -0.130905
v 0.163206 0.022702 -0.024162
v -0.326413 -0.092279 -0.026891
v -0.326413 -0.093672 -0.130905
v 0.326413 -0.092279 -0.026891
v 0.326413 -0.093672 -0.130905
vn 1.0000 0.0000 0.0000
vn 0.0077 0.9999 -0.0134
vn 0.0077 -0.9999 0.0134
usemtl Structure
s off
f 65//43 67//43 68//43
f 69//43 71//43 72//43
f 71//44 69//44 75//44
f 67//45 65//45 73//45
f 65//43 68//43 66//43
f 69//43 72//43 70//43
f 71//44 75//44 76//44
f 67//45 73//45 74//45
