# Blender 3.3.1
# www.blender.org
mtllib lowpoly.mtl
o Cube
v 0.531647 2.039896 -0.531647
v 1.000000 0.039897 -1.000000
v 0.531647 2.039896 0.531647
v 1.000000 0.039897 1.000000
v -0.531647 2.039896 -0.531647
v -1.000000 0.039897 -1.000000
v -0.531647 2.039896 0.531647
v -1.000000 0.039897 1.000000
v 1.000000 1.706563 -1.000000
v 0.855419 1.373230 -0.860478
v 0.729911 1.039897 -0.729911
v 0.855419 0.706563 -0.860478
v 1.000000 0.373230 -1.000000
v -1.000000 0.373230 1.000000
v -0.855419 0.706563 0.860478
v -0.729911 1.039897 0.729911
v -0.855419 1.373230 0.860478
v -1.000000 1.706563 1.000000
v 1.000000 1.706563 1.000000
v 0.855419 1.373230 0.860478
v 0.729911 1.039897 0.729911
v 0.855419 0.706563 0.860478
v 1.000000 0.373230 1.000000
v -1.000000 1.706563 -1.000000
v -0.855419 1.373230 -0.860478
v -0.729911 1.039897 -0.729911
v -0.855419 0.706563 -0.860478
v -1.000000 0.373230 -1.000000
v 0.823237 2.039896 0.823237
v -0.823237 2.039896 0.823237
v 0.823237 2.039896 -0.823237
v -0.823237 2.039896 -0.823237
v 0.689424 10.484167 0.689424
v -0.689424 10.484167 0.689424
v 0.689424 10.484167 -0.689424
v -0.689424 10.484167 -0.689424
v 0.689372 11.425302 0.689372
v -0.689372 11.425302 0.689372
v 0.689372 11.425302 -0.689372
v -0.689372 11.425302 -0.689372
v 0.689372 11.700522 0.689372
v -0.689372 11.700522 0.689372
v 0.689372 11.700522 -0.689372
v -0.689372 11.700522 -0.689372
v -0.689372 11.425302 -0.689372
v 0.689372 11.425302 -0.689372
v -0.689372 11.425302 0.689372
v 0.689372 11.425302 0.689372
v -0.669734 10.814321 0.669734
v -0.669734 11.090745 0.669734
v -0.669734 10.814321 -0.669734
v -0.669734 11.090745 -0.669734
v 0.669734 10.814321 0.669734
v 0.669734 11.090745 0.669734
v 0.669734 10.814321 -0.669734
v 0.669734 11.090745 -0.669734
v -0.462349 10.477817 0.462349
v -0.462349 11.425613 0.462349
v -0.462349 10.477817 -0.462349
v -0.462349 11.425613 -0.462349
v 0.462349 10.477817 0.462349
v 0.462349 11.425613 0.462349
v 0.462349 10.477817 -0.462349
v 0.462349 11.425613 -0.462349
v 0.506206 12.035186 0.506206
v -0.506206 12.035186 0.506206
v 0.506206 12.035186 -0.506206
v -0.506206 12.035186 -0.506206
v 0.128403 12.330261 0.128403
v -0.128403 12.330261 0.128403
v 0.128403 12.330261 -0.128403
v -0.128403 12.330261 -0.128403
v 0.065396 12.494747 0.065396
v -0.065396 12.494747 0.065396
v 0.065396 12.494747 -0.065396
v -0.065396 12.494747 -0.065396
v 0.039978 12.580117 0.039978
v -0.039978 12.580117 0.039978
v 0.039978 12.580117 -0.039978
v -0.039978 12.580117 -0.039978
v 0.039978 12.741789 0.039978
v -0.039978 12.741789 0.039978
v 0.039978 12.741789 -0.039978
v -0.039978 12.741789 -0.039978
v 0.104195 12.810338 0.104195
v -0.104195 12.810338 0.104195
v 0.104195 12.810338 -0.104195
v -0.104195 12.810338 -0.104195
v 0.132215 12.867764 0.132215
v -0.132215 12.867764 0.132215
v 0.132215 12.867764 -0.132215
v -0.132215 12.867764 -0.132215
v 0.095695 12.930502 0.095695
v -0.095695 12.930502 0.095695
v 0.095695 12.930502 -0.095695
v -0.095695 12.930502 -0.095695
v 0.046989 12.988214 0.046989
v -0.046989 12.988214 0.046989
v 0.046989 12.988214 -0.046989
v -0.046989 12.988214 -0.046989
v 0.006761 13.087971 0.006761
v -0.006761 13.087971 0.006761
v 0.006761 13.087971 -0.006761
v -0.006761 13.087971 -0.006761
v 0.689424 10.195261 0.689424
v -0.689424 10.195261 0.689424
v -0.689424 10.195261 -0.689424
v 0.689424 10.195261 -0.689424
v -0.280243 9.832974 0.280243
v 0.280243 9.832974 -0.280243
v 0.280243 9.832974 0.280243
v -0.280243 9.832974 -0.280243
v -0.484834 5.936435 0.484834
v 0.484834 5.936435 -0.484834
v 0.484834 5.936435 0.484834
v -0.484834 5.936435 -0.484834
v 0.309404 6.054399 0.309404
v -0.309404 6.054399 -0.309404
v -0.309404 6.054399 0.309404
v 0.309404 6.054399 -0.309404
v -0.491051 5.818030 0.491051
v 0.491051 5.818030 -0.491051
v 0.491051 5.818030 0.491051
v -0.491051 5.818030 -0.491051
v -0.321435 5.729066 0.321435
v 0.321435 5.729066 -0.321435
v 0.321435 5.729066 0.321435
v -0.321435 5.729066 -0.321435
v 1.000000 2.039896 1.000000
v -1.000000 2.039896 1.000000
v 1.000000 2.039896 -1.000000
v -1.000000 2.039896 -1.000000
v 0.354885 2.039896 0.354885
v -0.354885 2.039896 0.354885
v 0.354885 2.039896 -0.354885
v -0.354885 2.039896 -0.354885
v 0.823237 1.680870 0.823237
v 0.531647 1.680870 0.531647
v -0.531647 1.680870 0.531647
v -0.823237 1.680870 0.823237
v 0.823237 1.680870 -0.823237
v 0.531647 1.680870 -0.531647
v -0.531647 1.680870 -0.531647
v -0.823237 1.680870 -0.823237
vn -0.0000 -0.0000 1.0000
vn -1.0000 -0.0000 -0.0000
vn -0.0000 -1.0000 -0.0000
vn 1.0000 -0.0000 -0.0000
vn -0.0000 -0.0000 -1.0000
vn -0.0000 0.3861 -0.9225
vn -0.0000 0.3647 -0.9311
vn -0.0000 -0.3647 -0.9311
vn -0.0000 -0.3861 -0.9225
vn 0.9174 0.3979 -0.0000
vn 0.9359 0.3524 -0.0000
vn 0.9359 -0.3524 -0.0000
vn 0.9174 -0.3979 -0.0000
vn -0.9174 0.3979 -0.0000
vn -0.9359 0.3524 -0.0000
vn -0.9359 -0.3524 -0.0000
vn -0.9174 -0.3979 -0.0000
vn -0.0000 0.3861 0.9225
vn -0.0000 0.3647 0.9311
vn -0.0000 -0.3647 0.9311
vn -0.0000 -0.3861 0.9225
vn -0.0000 1.0000 -0.0000
vn -0.0000 0.4801 -0.8772
vn -0.6155 0.7881 -0.0000
vn 0.8772 0.4801 -0.0000
vn -0.8772 0.4801 -0.0000
vn -0.0000 0.4801 0.8772
vn -0.0000 0.3577 -0.9338
vn -0.0000 0.7881 0.6155
vn -0.0000 0.7881 -0.6155
vn 0.6155 0.7881 -0.0000
vn -0.9584 0.2854 -0.0000
vn 0.9338 0.3577 -0.0000
vn -0.9338 0.3577 -0.0000
vn -0.0000 0.3577 0.9338
vn -0.0000 0.2854 0.9584
vn -0.0000 0.2854 -0.9584
vn 0.9584 0.2854 -0.0000
vn -0.0000 -0.6837 -0.7298
vn -0.8987 -0.4385 -0.0000
vn 0.7298 -0.6837 -0.0000
vn -0.7298 -0.6837 -0.0000
vn -0.0000 -0.6837 0.7298
vn -0.0000 0.5031 -0.8642
vn -0.0000 -0.4385 0.8987
vn -0.0000 -0.4385 -0.8987
vn 0.8987 -0.4385 -0.0000
vn 0.7642 0.6450 -0.0000
vn 0.8642 0.5031 -0.0000
vn -0.8642 0.5031 -0.0000
vn -0.0000 0.5031 0.8642
vn -0.9274 0.3740 -0.0000
vn -0.7642 0.6450 -0.0000
vn -0.0000 0.6450 0.7642
vn -0.0000 0.6450 -0.7642
vn -0.0000 0.3740 0.9274
vn -0.0000 0.3740 -0.9274
vn 0.9274 0.3740 -0.0000
vn -0.6629 -0.7487 -0.0000
vn 0.6629 -0.7487 -0.0000
vn -0.0000 -0.7487 -0.6629
vn -0.0000 -0.7487 0.6629
vn -0.0000 0.0077 1.0000
vn -0.0000 0.0077 -1.0000
vn 1.0000 0.0077 -0.0000
vn -1.0000 0.0077 -0.0000
vn -0.9986 0.0524 -0.0000
vn 0.9986 0.0524 -0.0000
vn -0.0000 0.0524 -0.9986
vn -0.0000 0.0524 0.9986
vn -0.5580 0.8298 -0.0000
vn 0.5580 0.8298 -0.0000
vn -0.0000 0.8298 -0.5580
vn -0.0000 0.8298 0.5580
vn -0.0000 -0.8856 0.4645
vn -0.0000 -0.8856 -0.4645
vn 0.4645 -0.8856 -0.0000
vn -0.4645 -0.8856 -0.0000
vn -1.0000 0.0091 -0.0000
vn 1.0000 0.0091 -0.0000
vn -0.0000 0.0091 -1.0000
vn -0.0000 0.0091 1.0000
vt 0.653185 0.528185
vt 0.375000 0.500000
vt 0.653185 0.721815
vt 0.375000 0.750000
vt 0.846815 0.528185
vt 0.125000 0.500000
vt 0.375000 0.250000
vt 0.846815 0.721815
vt 0.125000 0.750000
vt 0.375000 0.000000
vt 0.375000 1.000000
vt 0.583333 0.500000
vt 0.541667 0.500000
vt 0.500000 0.500000
vt 0.458333 0.500000
vt 0.416667 0.500000
vt 0.416667 0.000000
vt 0.416667 1.000000
vt 0.458333 0.000000
vt 0.458333 1.000000
vt 0.500000 0.000000
vt 0.500000 1.000000
vt 0.541667 0.000000
vt 0.541667 1.000000
vt 0.583333 0.000000
vt 0.583333 1.000000
vt 0.583333 0.750000
vt 0.541667 0.750000
vt 0.500000 0.750000
vt 0.458333 0.750000
vt 0.416667 0.750000
vt 0.583333 0.250000
vt 0.541667 0.250000
vt 0.500000 0.250000
vt 0.458333 0.250000
vt 0.416667 0.250000
vt 0.635637 0.739363
vt 0.864363 0.739363
vt 0.635637 0.510637
vt 0.864363 0.510637
vt 0.663822 0.711178
vt 0.836178 0.711178
vt 0.663822 0.538822
vt 0.836178 0.538822
vt 0.683188 0.691812
vt 0.816812 0.691812
vt 0.683188 0.558188
vt 0.816812 0.558188
vt 0.683188 0.691812
vt 0.816812 0.691812
vt 0.683188 0.558188
vt 0.816812 0.558188
vt 0.816812 0.558188
vt 0.683188 0.558188
vt 0.816812 0.691812
vt 0.683188 0.691812
vt 0.375000 0.000000
vt 0.375000 1.000000
vt 0.125000 0.750000
vt 0.625000 0.000000
vt 0.625000 1.000000
vt 0.875000 0.750000
vt 0.375000 0.250000
vt 0.125000 0.500000
vt 0.625000 0.250000
vt 0.875000 0.500000
vt 0.375000 0.750000
vt 0.625000 0.750000
vt 0.375000 0.500000
vt 0.625000 0.500000
vt 0.375000 0.000000
vt 0.375000 1.000000
vt 0.125000 0.750000
vt 0.625000 0.000000
vt 0.625000 1.000000
vt 0.875000 0.750000
vt 0.375000 0.250000
vt 0.125000 0.500000
vt 0.625000 0.250000
vt 0.875000 0.500000
vt 0.375000 0.750000
vt 0.625000 0.750000
vt 0.375000 0.500000
vt 0.625000 0.500000
vt 0.683188 0.691812
vt 0.816812 0.691812
vt 0.683188 0.558188
vt 0.816812 0.558188
vt 0.683188 0.691812
vt 0.816812 0.691812
vt 0.683188 0.558188
vt 0.816812 0.558188
vt 0.683188 0.691812
vt 0.816812 0.691812
vt 0.683188 0.558188
vt 0.816812 0.558188
vt 0.683188 0.691812
vt 0.816812 0.691812
vt 0.683188 0.558188
vt 0.816812 0.558188
vt 0.683188 0.691812
vt 0.816812 0.691812
vt 0.683188 0.558188
vt 0.816812 0.558188
vt 0.683188 0.691812
vt 0.816812 0.691812
vt 0.683188 0.558188
vt 0.816812 0.558188
vt 0.683188 0.691812
vt 0.816812 0.691812
vt 0.683188 0.558188
vt 0.816812 0.558188
vt 0.683188 0.691812
vt 0.816812 0.691812
vt 0.683188 0.558188
vt 0.816812 0.558188
vt 0.683188 0.691812
vt 0.816812 0.691812
vt 0.683188 0.558188
vt 0.816812 0.558188
vt 0.683188 0.691812
vt 0.816812 0.691812
vt 0.683188 0.558188
vt 0.816812 0.558188
vt 0.663822 0.711178
vt 0.836178 0.711178
vt 0.836178 0.538822
vt 0.663822 0.538822
vt 0.836178 0.711178
vt 0.663822 0.538822
vt 0.663822 0.711178
vt 0.836178 0.538822
vt 0.836178 0.711178
vt 0.663822 0.538822
vt 0.663822 0.711178
vt 0.836178 0.538822
vt 0.663822 0.711178
vt 0.836178 0.538822
vt 0.836178 0.711178
vt 0.663822 0.538822
vt 0.836178 0.711178
vt 0.663822 0.538822
vt 0.663822 0.711178
vt 0.836178 0.538822
vt 0.836178 0.711178
vt 0.663822 0.538822
vt 0.663822 0.711178
vt 0.836178 0.538822
vt 0.625000 0.750000
vt 0.625000 1.000000
vt 0.625000 0.000000
vt 0.875000 0.750000
vt 0.625000 0.500000
vt 0.625000 0.250000
vt 0.875000 0.500000
vt 0.663822 0.711178
vt 0.836178 0.711178
vt 0.663822 0.538822
vt 0.836178 0.538822
vt 0.635637 0.739363
vt 0.653185 0.721815
vt 0.846815 0.721815
vt 0.864363 0.739363
vt 0.635637 0.510637
vt 0.653185 0.528185
vt 0.846815 0.528185
vt 0.864363 0.510637
s 0
usemtl Material
f 106/126/1 105/125/1 33/41/1 34/42/1
f 19/27/1 129/149/1 130/150/1 18/26/1
f 18/25/2 130/151/2 132/154/2 24/32/2
f 6/6/3 2/2/3 4/4/3 8/9/3
f 9/12/4 131/153/4 129/149/4 19/27/4
f 24/32/5 132/154/5 131/153/5 9/12/5
f 6/7/5 28/36/5 13/16/5 2/2/5
f 28/36/6 27/35/6 12/15/6 13/16/6
f 27/35/7 26/34/7 11/14/7 12/15/7
f 26/34/8 25/33/8 10/13/8 11/14/8
f 25/33/9 24/32/9 9/12/9 10/13/9
f 2/2/4 13/16/4 23/31/4 4/4/4
f 13/16/10 12/15/10 22/30/10 23/31/10
f 12/15/11 11/14/11 21/29/11 22/30/11
f 11/14/12 10/13/12 20/28/12 21/29/12
f 10/13/13 9/12/13 19/27/13 20/28/13
f 8/10/2 14/17/2 28/36/2 6/7/2
f 14/17/14 15/19/14 27/35/14 28/36/14
f 15/19/15 16/21/15 26/34/15 27/35/15
f 16/21/16 17/23/16 25/33/16 26/34/16
f 17/23/17 18/25/17 24/32/17 25/33/17
f 4/4/1 23/31/1 14/18/1 8/11/1
f 23/31/18 22/30/18 15/20/18 14/18/18
f 22/30/19 21/29/19 16/22/19 15/20/19
f 21/29/20 20/28/20 17/24/20 16/22/20
f 20/28/21 19/27/21 18/26/21 17/24/21
f 29/37/2 31/39/2 141/164/2 137/160/2
f 31/39/1 32/40/1 144/167/1 141/164/1
f 1/1/4 3/3/4 138/161/4 142/165/4
f 5/5/5 1/1/5 142/165/5 143/166/5
f 40/48/22 39/47/22 46/54/22 45/53/22
f 108/128/5 107/127/5 36/44/5 35/43/5
f 105/125/4 108/128/4 35/43/4 33/41/4
f 107/127/2 106/126/2 34/42/2 36/44/2
f 37/45/4 39/47/4 43/51/4 41/49/4
f 37/45/22 38/46/22 47/55/22 48/56/22
f 39/47/22 37/45/22 48/56/22 46/54/22
f 38/46/22 40/48/22 45/53/22 47/55/22
f 43/51/23 44/52/23 68/88/23 67/87/23
f 40/48/2 38/46/2 42/50/2 44/52/2
f 38/46/1 37/45/1 41/49/1 42/50/1
f 39/47/5 40/48/5 44/52/5 43/51/5
f 49/57/2 50/60/2 52/65/2 51/63/2
f 51/63/5 52/65/5 56/70/5 55/69/5
f 55/69/4 56/70/4 54/68/4 53/67/4
f 53/67/1 54/68/1 50/61/1 49/58/1
f 51/64/3 55/69/3 53/67/3 49/59/3
f 56/70/22 52/66/22 50/62/22 54/68/22
f 48/56/3 47/55/3 45/53/3 46/54/3
f 33/41/22 35/43/22 36/44/22 34/42/22
f 59/78/3 63/83/3 61/81/3 57/73/3
f 64/84/22 60/80/22 58/76/22 62/82/22
f 68/88/24 66/86/24 70/90/24 72/92/24
f 41/49/25 43/51/25 67/87/25 65/85/25
f 44/52/26 42/50/26 66/86/26 68/88/26
f 42/50/27 41/49/27 65/85/27 66/86/27
f 71/91/28 72/92/28 76/96/28 75/95/28
f 66/86/29 65/85/29 69/89/29 70/90/29
f 67/87/30 68/88/30 72/92/30 71/91/30
f 65/85/31 67/87/31 71/91/31 69/89/31
f 76/96/32 74/94/32 78/98/32 80/100/32
f 69/89/33 71/91/33 75/95/33 73/93/33
f 72/92/34 70/90/34 74/94/34 76/96/34
f 70/90/35 69/89/35 73/93/35 74/94/35
f 80/100/2 78/98/2 82/102/2 84/104/2
f 74/94/36 73/93/36 77/97/36 78/98/36
f 75/95/37 76/96/37 80/100/37 79/99/37
f 73/93/38 75/95/38 79/99/38 77/97/38
f 83/103/39 84/104/39 88/108/39 87/107/39
f 78/98/1 77/97/1 81/101/1 82/102/1
f 79/99/5 80/100/5 84/104/5 83/103/5
f 77/97/4 79/99/4 83/103/4 81/101/4
f 88/108/40 86/106/40 90/110/40 92/112/40
f 81/101/41 83/103/41 87/107/41 85/105/41
f 84/104/42 82/102/42 86/106/42 88/108/42
f 82/102/43 81/101/43 85/105/43 86/106/43
f 91/111/44 92/112/44 96/116/44 95/115/44
f 86/106/45 85/105/45 89/109/45 90/110/45
f 87/107/46 88/108/46 92/112/46 91/111/46
f 85/105/47 87/107/47 91/111/47 89/109/47
f 93/113/48 95/115/48 99/119/48 97/117/48
f 89/109/49 91/111/49 95/115/49 93/113/49
f 92/112/50 90/110/50 94/114/50 96/116/50
f 90/110/51 89/109/51 93/113/51 94/114/51
f 100/120/52 98/118/52 102/122/52 104/124/52
f 96/116/53 94/114/53 98/118/53 100/120/53
f 94/114/54 93/113/54 97/117/54 98/118/54
f 95/115/55 96/116/55 100/120/55 99/119/55
f 103/123/22 104/124/22 102/122/22 101/121/22
f 98/118/56 97/117/56 101/121/56 102/122/56
f 99/119/57 100/120/57 104/124/57 103/123/57
f 97/117/58 99/119/58 103/123/58 101/121/58
f 112/132/59 109/129/59 106/126/59 107/127/59
f 111/131/60 110/130/60 108/128/60 105/125/60
f 110/130/61 112/132/61 107/127/61 108/128/61
f 109/129/62 111/131/62 105/125/62 106/126/62
f 119/139/63 117/137/63 111/131/63 109/129/63
f 120/140/64 118/138/64 112/132/64 110/130/64
f 117/137/65 120/140/65 110/130/65 111/131/65
f 118/138/66 119/139/66 109/129/66 112/132/66
f 124/144/67 121/141/67 113/133/67 116/136/67
f 123/143/68 122/142/68 114/134/68 115/135/68
f 122/142/69 124/144/69 116/136/69 114/134/69
f 121/141/70 123/143/70 115/135/70 113/133/70
f 116/136/71 113/133/71 119/139/71 118/138/71
f 115/135/72 114/134/72 120/140/72 117/137/72
f 114/134/73 116/136/73 118/138/73 120/140/73
f 113/133/74 115/135/74 117/137/74 119/139/74
f 125/145/75 127/147/75 123/143/75 121/141/75
f 126/146/76 128/148/76 124/144/76 122/142/76
f 127/147/77 126/146/77 122/142/77 123/143/77
f 128/148/78 125/145/78 121/141/78 124/144/78
f 136/159/79 134/157/79 125/145/79 128/148/79
f 133/156/80 135/158/80 126/146/80 127/147/80
f 135/158/81 136/159/81 128/148/81 126/146/81
f 134/157/82 133/156/82 127/147/82 125/145/82
f 29/37/22 30/38/22 130/152/22 129/149/22
f 31/39/22 29/37/22 129/149/22 131/153/22
f 30/38/22 32/40/22 132/155/22 130/152/22
f 32/40/22 31/39/22 131/153/22 132/155/22
f 7/8/22 3/3/22 133/156/22 134/157/22
f 3/3/22 1/1/22 135/158/22 133/156/22
f 5/5/22 7/8/22 134/157/22 136/159/22
f 1/1/22 5/5/22 136/159/22 135/158/22
f 138/161/22 139/162/22 140/163/22 137/160/22
f 142/165/22 138/161/22 137/160/22 141/164/22
f 139/162/22 143/166/22 144/167/22 140/163/22
f 143/166/22 142/165/22 141/164/22 144/167/22
f 7/8/2 5/5/2 143/166/2 139/162/2
f 3/3/1 7/8/1 139/162/1 138/161/1
f 32/40/4 30/38/4 140/163/4 144/167/4
f 30/38/5 29/37/5 137/160/5 140/163/5
usemtl Material.001
f 57/71/2 58/74/2 60/79/2 59/77/2
f 59/77/5 60/79/5 64/84/5 63/83/5
f 63/83/4 64/84/4 62/82/4 61/81/4
f 61/81/1 62/82/1 58/75/1 57/72/1
