# Blender 4.0.2
# www.blender.org
mtllib crate.mtl
o crate002
v -0.246359 0.042366 0.315148
v 0.255199 0.042366 0.315148
v 0.255199 0.559277 0.315148
v -0.246359 0.559277 0.315148
v -0.246359 0.042366 0.283838
v 0.255199 0.042366 0.283838
v 0.255199 0.559277 0.283838
v -0.246359 0.559277 0.283838
v 0.297411 0.006796 0.315068
v 0.248692 0.485196 0.278360
v 0.176526 0.544867 0.279335
v -0.178600 0.043192 0.278361
v 0.241992 0.479805 0.294692
v 0.171876 0.531083 0.295639
v -0.173442 0.050073 0.294693
v -0.240885 0.113419 0.279335
v -0.230644 0.118320 0.295639
v 0.038316 0.286477 0.294692
v 0.042458 0.289219 0.278361
v 0.304604 0.007120 0.308952
v 0.304605 0.049270 -0.244178
v 0.304604 0.550828 -0.244178
v 0.304604 0.550828 0.272733
v 0.304604 0.049270 0.272733
v 0.273295 0.049270 -0.244178
v 0.273294 0.550828 -0.244178
v 0.273294 0.550828 0.272733
v 0.273294 0.049270 0.272733
v 0.304604 0.594987 -0.279840
v 0.304604 0.594550 0.309023
v 0.297441 0.000049 0.308952
v 0.304604 0.006076 -0.279353
v 0.267817 0.544320 0.198652
v 0.268791 0.472154 0.258323
v 0.267817 0.117029 -0.243352
v 0.284149 0.537621 0.193261
v 0.285096 0.467505 0.244539
v 0.284149 0.122187 -0.236471
v 0.268792 0.054743 -0.173125
v 0.285096 0.064985 -0.168225
v 0.284149 0.333944 -0.000067
v 0.267817 0.338087 0.002675
v -0.288509 0.000049 0.308952
v -0.246359 0.000049 -0.244178
v 0.255199 0.000049 -0.244178
v 0.255199 0.000049 0.272733
v -0.246359 0.000049 0.272733
v -0.246359 0.031359 -0.244178
v 0.255199 0.031359 -0.244178
v 0.255199 0.031359 0.272733
v -0.246359 0.031359 0.272733
v -0.295580 0.006076 -0.279353
v 0.248692 0.036836 0.198652
v 0.176526 0.035862 0.258323
v -0.178600 0.036836 -0.243352
v 0.241992 0.020504 0.193261
v 0.171876 0.019558 0.244539
v -0.173442 0.020504 -0.236471
v -0.240885 0.035862 -0.173125
v -0.230644 0.019557 -0.168225
v 0.038316 0.020504 -0.000067
v 0.042458 0.036836 0.002675
v 0.297533 0.601621 0.309023
v 0.255383 0.601621 -0.244107
v -0.246174 0.601621 -0.244107
v -0.246174 0.601621 0.272804
v 0.255383 0.601621 0.272804
v 0.255383 0.570311 -0.244107
v -0.246174 0.570311 -0.244107
v -0.246174 0.570311 0.272804
v 0.255383 0.570311 0.272804
v -0.288386 0.601541 -0.279678
v 0.297441 0.594237 0.315088
v 0.297533 0.601561 -0.279840
v -0.239667 0.564834 0.198723
v -0.167501 0.565808 0.258394
v 0.187625 0.564834 -0.243281
v -0.232967 0.581166 0.193332
v -0.162851 0.582112 0.244610
v 0.182467 0.581166 -0.236400
v 0.249910 0.565808 -0.173054
v 0.239668 0.582113 -0.168154
v -0.029291 0.581166 0.000004
v -0.033433 0.564834 0.002746
v -0.288509 0.595496 0.315148
v -0.295580 0.595425 -0.279353
v -0.295580 0.042295 -0.237203
v -0.295580 0.042295 0.264355
v -0.295580 0.559206 0.264355
v -0.295580 0.559206 -0.237203
v -0.261834 0.042295 -0.226803
v -0.261834 0.042295 0.274755
v -0.261834 0.559206 0.274754
v -0.261834 0.559206 -0.226803
v -0.287914 0.006634 0.313865
v -0.295580 0.006634 0.308514
v -0.288417 0.006076 -0.286424
v -0.288417 0.601561 0.307764
v -0.295580 0.595425 0.306504
v -0.288417 0.595425 -0.286424
v -0.288509 0.000049 -0.280397
v -0.258793 0.485125 0.257847
v -0.259767 0.544796 0.185681
v -0.258793 0.043121 -0.169444
v -0.275124 0.479734 0.251147
v -0.276071 0.531012 0.181031
v -0.275124 0.050002 -0.164287
v -0.259767 0.113348 -0.231730
v -0.276071 0.118248 -0.221488
v -0.275124 0.286406 0.047471
v -0.258793 0.289148 0.051614
v 0.297533 0.595425 -0.286424
v 0.255383 0.042295 -0.286424
v -0.246174 0.042295 -0.286424
v -0.246174 0.559206 -0.286424
v 0.255383 0.559206 -0.286424
v 0.255383 0.042295 -0.255114
v -0.246174 0.042295 -0.255114
v -0.246174 0.559206 -0.255114
v 0.255383 0.559206 -0.255114
v 0.297441 0.000049 -0.280397
v 0.297533 0.006076 -0.286424
v -0.239667 0.485125 -0.249637
v -0.167501 0.544796 -0.250611
v 0.187625 0.043121 -0.249637
v -0.232967 0.479734 -0.265969
v -0.162851 0.531012 -0.266916
v 0.182467 0.050002 -0.265969
v 0.249910 0.113348 -0.250611
v 0.239668 0.118248 -0.266916
v -0.029291 0.286406 -0.265969
v -0.033433 0.289148 -0.249637
vn -0.0000 -0.0000 1.0000
vn 0.3086 0.3131 0.8982
vn -0.0001 -0.0029 1.0000
vn 0.3129 -0.3406 0.8866
vn -0.3734 0.3942 0.8398
vn 0.0008 0.0008 1.0000
vn -0.2758 -0.2960 0.9145
vn -0.0013 -0.0011 1.0000
vn -0.0000 1.0000 -0.0000
vn -1.0000 -0.0000 -0.0000
vn -0.0000 -1.0000 -0.0000
vn 1.0000 -0.0000 -0.0000
vn 0.0079 -0.0082 0.9999
vn 0.0088 -0.0086 0.9999
vn 0.0076 -0.0080 0.9999
vn 0.5266 0.6996 0.4829
vn 0.5003 0.6040 0.6204
vn 0.5300 0.7163 0.4539
vn -0.6957 0.6782 0.2368
vn -0.6715 0.6498 0.3561
vn -0.6712 0.6494 0.3576
vn -0.6361 -0.5448 0.5465
vn -0.6587 -0.5873 0.4703
vn -0.6319 -0.5374 0.5585
vn 0.7102 -0.7012 0.0618
vn 0.6882 -0.7242 0.0435
vn 0.7208 -0.6898 0.0670
vn 0.0081 -0.0074 0.9999
vn 0.0080 -0.0072 0.9999
vn 0.7430 -0.6676 0.0473
vn 0.8628 0.3667 -0.3480
vn 0.8602 -0.3512 0.3697
vn 0.8569 0.3526 0.3761
vn 0.8625 -0.3852 -0.3284
vn -0.0000 -0.0000 -1.0000
vn 0.3228 -0.8809 0.3461
vn 0.3048 -0.8912 -0.3361
vn 0.9999 0.0078 -0.0082
vn 0.9999 0.0088 -0.0086
vn 0.9999 0.0076 -0.0080
vn 0.6240 0.4723 0.6225
vn 0.4828 0.5577 0.6752
vn 0.4588 0.5699 0.6817
vn 0.2370 -0.6956 0.6782
vn 0.3561 -0.6716 0.6498
vn 0.3576 -0.6712 0.6494
vn 0.4702 -0.6712 -0.5731
vn 0.5452 -0.6252 -0.5585
vn 0.5555 -0.6183 -0.5561
vn 0.0618 0.7103 -0.7012
vn 0.0435 0.6882 -0.7242
vn 0.0673 0.7215 -0.6892
vn 0.9999 0.0082 -0.0074
vn 0.9999 0.0080 -0.0072
vn 0.0473 0.7430 -0.6676
vn -0.3158 -0.8665 0.3866
vn -0.8423 -0.3553 0.4053
vn -0.8629 -0.3815 -0.3314
vn -0.3084 -0.8894 -0.3375
vn 0.0078 -0.9999 -0.0082
vn 0.0088 -0.9999 -0.0086
vn 0.0076 -0.9999 -0.0080
vn 0.5258 -0.4887 0.6962
vn 0.5012 -0.6172 0.6066
vn 0.5300 -0.4539 0.7163
vn -0.6956 -0.2373 0.6781
vn -0.6717 -0.3557 0.6499
vn -0.6712 -0.3576 0.6494
vn -0.6695 -0.4731 -0.5726
vn -0.6266 -0.5430 -0.5590
vn -0.6183 -0.5555 -0.5561
vn 0.7113 -0.0621 -0.7001
vn 0.6882 -0.0436 -0.7242
vn 0.7201 -0.0667 -0.6907
vn 0.0081 -0.9999 -0.0074
vn 0.0080 -0.9999 -0.0072
vn 0.7430 -0.0475 -0.6676
vn -0.3126 0.9011 0.3006
vn -0.0009 1.0000 -0.0012
vn -0.3027 0.8996 -0.3148
vn 0.3235 0.8738 0.3631
vn -0.0007 1.0000 0.0008
vn 0.3159 0.8944 -0.3165
vn 0.0001 1.0000 -0.0000
vn -0.0078 0.9999 -0.0082
vn -0.0088 0.9999 -0.0086
vn -0.0076 0.9999 -0.0080
vn -0.5258 0.4887 0.6962
vn -0.5012 0.6172 0.6066
vn -0.5300 0.4539 0.7163
vn 0.6956 0.2373 0.6781
vn 0.6717 0.3557 0.6499
vn 0.6712 0.3576 0.6494
vn 0.6695 0.4731 -0.5726
vn 0.6266 0.5430 -0.5590
vn 0.6183 0.5555 -0.5561
vn -0.7113 0.0621 -0.7001
vn -0.6882 0.0436 -0.7242
vn -0.7201 0.0667 -0.6907
vn -0.0081 0.9999 -0.0074
vn -0.0080 0.9999 -0.0072
vn -0.7430 0.0475 -0.6676
vn -0.8766 0.3855 0.2879
vn -0.8583 0.3886 -0.3353
vn 0.2945 -0.0000 -0.9556
vn -0.2945 -0.0000 0.9556
vn -0.3369 -0.3549 -0.8721
vn -0.3342 0.3783 -0.8632
vn -0.9999 -0.0082 0.0079
vn -0.9999 -0.0086 0.0088
vn -0.9999 -0.0080 0.0076
vn -0.4829 0.6996 0.5266
vn -0.6204 0.6040 0.5003
vn -0.4539 0.7163 0.5300
vn -0.2368 0.6782 -0.6957
vn -0.3561 0.6498 -0.6715
vn -0.3576 0.6494 -0.6712
vn -0.5465 -0.5448 -0.6361
vn -0.4703 -0.5873 -0.6587
vn -0.5585 -0.5374 -0.6319
vn -0.0618 -0.7012 0.7102
vn -0.0435 -0.7242 0.6882
vn -0.0670 -0.6898 0.7208
vn -0.9999 -0.0074 0.0081
vn -0.9999 -0.0072 0.0080
vn -0.0473 -0.6676 0.7430
vn 0.3276 0.3768 -0.8664
vn 0.3405 -0.3568 -0.8699
vn -0.0079 -0.0082 -0.9999
vn -0.0088 -0.0086 -0.9999
vn -0.0076 -0.0080 -0.9999
vn -0.5266 0.6996 -0.4829
vn -0.5003 0.6040 -0.6204
vn -0.5300 0.7163 -0.4539
vn 0.6957 0.6782 -0.2368
vn 0.6715 0.6498 -0.3561
vn 0.6712 0.6494 -0.3576
vn 0.6361 -0.5448 -0.5465
vn 0.6587 -0.5873 -0.4703
vn 0.6319 -0.5374 -0.5585
vn -0.7102 -0.7012 -0.0618
vn -0.6882 -0.7242 -0.0435
vn -0.7208 -0.6898 -0.0670
vn -0.0081 -0.0074 -0.9999
vn -0.0080 -0.0072 -0.9999
vn -0.7430 -0.6676 -0.0473
vn -0.0154 -0.0179 0.9997
vn 0.4953 0.5886 0.6389
vn -0.6962 0.6789 0.2333
vn -0.6616 -0.5931 0.4588
vn 0.6882 -0.7242 0.0433
vn 0.7430 -0.6676 0.0466
vn 0.6469 0.4558 0.6114
vn 0.2333 -0.6962 0.6789
vn 0.4567 -0.6787 -0.5752
vn 0.0433 0.6882 -0.7242
vn 0.0466 0.7430 -0.6676
vn 0.4953 -0.6389 0.5886
vn -0.6962 -0.2333 0.6789
vn -0.6787 -0.4567 -0.5752
vn 0.6882 -0.0433 -0.7242
vn 0.7430 -0.0466 -0.6676
vn 0.0007 1.0000 -0.0009
vn -0.4953 0.6389 0.5886
vn 0.6962 0.2333 0.6789
vn 0.6787 0.4567 -0.5752
vn -0.6882 0.0433 -0.7242
vn -0.7430 0.0466 -0.6676
vn -0.6389 0.5886 0.4953
vn -0.2333 0.6789 -0.6962
vn -0.4588 -0.5931 -0.6616
vn -0.0433 -0.7242 0.6882
vn -0.0466 -0.6676 0.7430
vn -0.4953 0.5886 -0.6389
vn 0.6962 0.6789 -0.2333
vn 0.6616 -0.5931 -0.4588
vn -0.6882 -0.7242 -0.0433
vn -0.7430 -0.6676 -0.0466
vt 0.465882 0.986696
vt 0.018072 0.538886
vt 0.465882 0.538886
vt 0.727147 0.016205
vt 0.757223 0.490760
vt 0.727008 0.524745
vt 0.503113 0.013848
vt 0.036510 0.047230
vt 0.006040 0.016760
vt 0.502529 0.014633
vt 0.036588 0.047239
vt 0.006155 0.016575
vt 0.757056 0.043881
vt 0.781742 0.493979
vt 0.757056 0.490699
vt 0.757029 0.044239
vt 0.781607 0.493803
vt 0.471186 0.046502
vt 0.036510 0.069864
vt 0.471416 0.046042
vt 0.036287 0.071373
vt 0.727078 0.524708
vt 0.727159 0.016224
vt 0.814842 0.507691
vt 0.868190 0.280567
vt 0.883091 0.505250
vt 0.883672 0.518730
vt 0.788983 0.035129
vt 0.802080 0.518161
vt 0.796557 0.028687
vt 0.871517 0.022993
vt 0.801697 0.042897
vt 0.880428 0.284017
vt 0.928129 0.987338
vt 0.480318 0.539527
vt 0.928129 0.539527
vt 0.989570 0.486323
vt 0.957671 0.963655
vt 0.957215 0.517772
vt 0.716678 0.522504
vt 0.680251 0.053575
vt 0.715955 0.016721
vt 0.572690 0.022020
vt 0.604065 0.498030
vt 0.572951 0.529440
vt 0.942093 0.048397
vt 0.971863 0.485912
vt 0.945853 0.485647
vt 0.934001 0.517772
vt 0.680481 0.484934
vt 0.653306 0.053756
vt 0.601957 0.051868
vt 0.627287 0.497921
vt 0.722805 0.528967
vt 0.564906 0.529163
vt 0.563762 0.022003
vt 0.908582 0.523027
vt 0.904509 0.012073
vt 0.813758 0.507691
vt 0.867107 0.280567
vt 0.882008 0.505250
vt 0.809649 0.523209
vt 0.882589 0.518730
vt 0.787900 0.035129
vt 0.802235 0.517879
vt 0.869191 0.008318
vt 0.800613 0.042897
vt 0.796456 0.028584
vt 0.880352 0.284219
vt 0.870434 0.022993
vt 0.467829 0.530589
vt 0.020019 0.082779
vt 0.467829 0.082779
vt 0.533261 0.054404
vt 0.716562 0.522246
vt 0.680311 0.053614
vt 0.716181 0.016484
vt 0.942130 0.048389
vt 0.971863 0.485870
vt 0.945761 0.485801
vt 0.510047 0.499344
vt 0.510047 0.054404
vt 0.680822 0.485056
vt 0.653127 0.054235
vt 0.722998 0.528937
vt 0.502495 0.007216
vt 0.006043 0.009620
vt 0.908647 0.523056
vt 0.904511 0.012061
vt 0.814842 0.508128
vt 0.868190 0.281004
vt 0.883091 0.505687
vt 0.883672 0.519167
vt 0.788983 0.035566
vt 0.802080 0.518597
vt 0.870274 0.008755
vt 0.801697 0.043334
vt 0.796403 0.028814
vt 0.880428 0.284454
vt 0.871517 0.023430
vt 0.503113 0.006619
vt 0.509372 0.010234
vt 0.006040 0.009532
vt 0.870274 0.008318
vt 0.653306 0.485393
vt 0.572569 0.013664
vt 0.720235 0.010376
vt 0.988466 0.994679
vt 0.996414 0.486372
vt 0.995880 0.994679
vt 0.020019 0.530589
vt 0.900866 0.525661
vt 0.897921 0.009594
vt 0.534174 0.499572
vt 0.509089 0.005223
vt 0.018072 0.986696
vt 0.781742 0.047160
vt 0.780738 0.047714
vt 0.471186 0.069136
vt 0.471525 0.069264
vt 0.810732 0.523209
vt 0.895622 0.511201
vt 0.883782 0.016208
vt 0.480318 0.987338
vt 0.969493 0.047791
vt 0.934001 0.963656
vt 0.625179 0.051758
vt 0.894539 0.511201
vt 0.883731 0.016446
vt 0.969459 0.047823
vt 0.653339 0.485488
vt 0.810732 0.523646
vt 0.895622 0.511638
vt 0.883782 0.016645
s 1
usemtl Material_#51
f 6/1/1 8/2/1 5/3/1
f 73/4/2 2/5/3 9/6/4
f 85/7/5 3/8/6 73/9/2
f 95/10/7 4/11/8 85/12/5
f 2/13/9 5/14/9 1/15/9
f 3/16/10 6/17/10 2/5/10
f 4/18/11 7/19/11 3/8/11
f 1/20/12 8/21/12 4/11/12
f 2/13/3 95/22/7 9/23/4
f 14/24/13 18/25/14 13/26/15
f 10/27/16 14/24/17 13/26/18
f 16/28/19 14/24/20 11/29/21
f 16/30/22 15/31/23 17/32/24
f 19/33/25 13/26/26 18/25/27
f 17/32/28 15/31/29 18/25/14
f 15/31/30 19/33/25 18/25/27
f 26/34/12 28/35/12 25/36/12
f 29/37/31 23/38/12 22/39/12
f 20/40/32 23/41/12 30/42/33
f 32/43/34 24/44/12 20/45/32
f 22/46/1 25/47/1 21/48/1
f 23/38/11 26/49/11 22/39/11
f 24/50/35 27/51/35 23/41/35
f 21/52/9 28/53/9 24/44/9
f 20/40/32 9/6/4 31/54/36
f 20/40/32 73/4/2 9/6/4
f 32/43/34 31/55/36 121/56/37
f 22/46/12 32/57/34 29/58/31
f 37/59/38 41/60/39 36/61/40
f 34/62/41 36/61/42 33/63/43
f 39/64/44 37/59/45 34/65/46
f 35/66/47 40/67/48 39/68/49
f 42/69/50 36/61/51 41/60/52
f 40/67/53 38/70/54 41/60/39
f 38/70/55 42/69/50 41/60/52
f 49/71/11 51/72/11 48/73/11
f 31/55/36 45/74/11 121/56/37
f 43/75/56 46/76/11 31/77/36
f 43/12/56 44/20/11 47/11/11
f 45/78/1 48/79/1 44/80/1
f 45/74/10 50/81/10 49/82/10
f 47/83/35 50/84/35 46/76/35
f 44/20/12 51/21/12 47/11/12
f 43/75/56 95/22/7 96/85/57
f 95/22/7 31/77/36 9/23/4
f 52/86/58 43/12/56 96/87/57
f 45/78/11 101/88/59 121/89/37
f 57/90/60 61/91/61 56/92/62
f 53/93/63 57/90/64 56/92/65
f 59/94/66 57/90/67 54/95/68
f 55/96/69 60/97/70 59/98/71
f 62/99/72 56/92/73 61/91/74
f 60/97/75 58/100/76 61/91/61
f 58/100/77 62/99/72 61/91/74
f 69/1/9 71/2/9 68/3/9
f 98/4/78 65/5/79 72/6/80
f 63/7/81 66/8/82 98/9/78
f 74/10/83 67/11/84 63/12/81
f 65/13/1 68/14/1 64/15/1
f 66/16/12 69/17/12 65/5/12
f 67/18/35 70/19/35 66/8/35
f 64/20/10 71/21/10 67/11/10
f 63/7/81 73/101/2 30/102/33
f 73/101/2 98/9/78 85/103/5
f 29/86/31 63/12/81 30/87/33
f 65/13/79 74/22/83 72/23/80
f 79/24/85 83/25/86 78/26/87
f 75/27/88 79/24/89 78/26/90
f 81/28/91 79/24/92 76/29/93
f 77/104/94 82/32/95 81/30/96
f 84/33/97 78/26/98 83/25/99
f 82/32/100 80/31/101 83/25/86
f 80/31/102 84/33/97 83/25/99
f 92/34/10 94/35/10 91/36/10
f 96/37/57 89/38/10 88/39/10
f 99/42/103 90/50/10 89/41/10
f 52/43/58 90/44/10 86/45/104
f 88/46/9 91/47/9 87/48/9
f 89/38/105 92/49/105 88/39/105
f 89/41/11 94/105/11 93/51/11
f 87/52/106 94/53/106 90/44/106
f 52/43/58 97/56/107 101/106/59
f 85/107/5 98/4/78 99/42/103
f 86/40/104 72/6/80 100/54/108
f 72/6/80 99/42/103 98/4/78
f 99/108/103 95/109/7 85/110/5
f 52/43/58 100/55/108 97/56/107
f 88/46/10 52/57/58 96/58/57
f 106/59/109 110/60/110 105/61/111
f 102/63/112 106/59/113 105/61/114
f 108/64/115 106/59/116 103/65/117
f 108/68/118 107/70/119 109/67/120
f 111/69/121 105/61/122 110/60/123
f 109/67/124 107/70/125 110/60/110
f 107/70/126 111/69/121 110/60/123
f 117/73/35 119/111/35 120/72/35
f 97/89/107 121/112/37 101/113/59
f 100/55/108 114/74/35 97/56/107
f 112/75/127 115/76/35 100/77/108
f 122/10/128 116/11/35 112/12/127
f 114/78/9 117/79/9 113/80/9
f 115/114/12 118/82/12 114/74/12
f 116/83/11 119/84/11 115/76/11
f 113/20/10 120/21/10 116/11/10
f 122/10/128 32/86/34 121/115/37
f 112/75/127 74/22/83 29/85/31
f 112/75/127 72/23/80 74/22/83
f 122/10/128 29/87/31 32/86/34
f 114/78/35 122/88/128 97/89/107
f 127/90/129 131/91/130 126/92/131
f 123/93/132 127/90/133 126/92/134
f 129/94/135 127/90/136 124/95/137
f 129/98/138 128/100/139 130/97/140
f 132/99/141 126/92/142 131/91/143
f 130/97/144 128/100/145 131/91/130
f 128/100/146 132/99/141 131/91/143
f 6/1/1 7/116/1 8/2/1
f 73/4/2 3/16/6 2/5/3
f 85/7/5 4/18/8 3/8/6
f 95/10/7 1/20/147 4/11/8
f 2/13/9 6/117/9 5/14/9
f 3/16/10 7/118/10 6/17/10
f 4/18/11 8/119/11 7/19/11
f 1/20/12 5/120/12 8/21/12
f 2/13/3 1/15/147 95/22/7
f 14/24/13 17/32/28 18/25/14
f 10/27/16 11/121/148 14/24/17
f 16/28/19 17/32/149 14/24/20
f 16/30/22 12/104/150 15/31/23
f 19/33/25 10/122/151 13/26/26
f 15/31/30 12/123/152 19/33/25
f 26/34/12 27/124/12 28/35/12
f 29/37/31 30/108/33 23/38/12
f 20/40/32 24/50/12 23/41/12
f 32/43/34 21/52/12 24/44/12
f 22/46/1 26/125/1 25/47/1
f 23/38/11 27/126/11 26/49/11
f 24/50/35 28/105/35 27/51/35
f 21/52/9 25/127/9 28/53/9
f 20/40/32 30/42/33 73/4/2
f 32/43/34 20/45/32 31/55/36
f 22/46/12 21/48/12 32/57/34
f 37/59/38 40/67/53 41/60/39
f 34/62/41 37/59/153 36/61/42
f 39/64/44 40/67/154 37/59/45
f 35/66/47 38/70/155 40/67/48
f 42/69/50 33/128/156 36/61/51
f 38/70/55 35/129/157 42/69/50
f 49/71/11 50/111/11 51/72/11
f 31/55/36 46/114/11 45/74/11
f 43/75/56 47/83/11 46/76/11
f 43/12/56 101/10/59 44/20/11
f 45/78/1 49/130/1 48/79/1
f 45/74/10 46/114/10 50/81/10
f 47/83/35 51/131/35 50/84/35
f 44/20/12 48/120/12 51/21/12
f 95/22/7 43/75/56 31/77/36
f 52/86/58 101/10/59 43/12/56
f 45/78/11 44/80/11 101/88/59
f 57/90/60 60/97/75 61/91/61
f 53/93/63 54/132/158 57/90/64
f 59/94/66 60/97/159 57/90/67
f 55/96/69 58/100/160 60/97/70
f 62/99/72 53/133/161 56/92/73
f 58/100/77 55/134/162 62/99/72
f 69/1/9 70/116/9 71/2/9
f 98/4/78 66/16/82 65/5/79
f 63/7/81 67/18/84 66/8/82
f 74/10/83 64/20/163 67/11/84
f 65/13/1 69/117/1 68/14/1
f 66/16/12 70/118/12 69/17/12
f 67/18/35 71/119/35 70/19/35
f 64/20/10 68/120/10 71/21/10
f 73/101/2 63/7/81 98/9/78
f 29/86/31 74/10/83 63/12/81
f 65/13/79 64/15/163 74/22/83
f 79/24/85 82/32/100 83/25/86
f 75/27/88 76/121/164 79/24/89
f 81/28/91 82/32/165 79/24/92
f 77/104/94 80/31/166 82/32/95
f 84/33/97 75/122/167 78/26/98
f 80/31/102 77/123/168 84/33/97
f 92/34/10 93/124/10 94/35/10
f 96/37/57 99/108/103 89/38/10
f 99/42/103 86/40/104 90/50/10
f 52/43/58 87/52/10 90/44/10
f 88/46/9 92/125/9 91/47/9
f 89/38/105 93/126/105 92/49/105
f 89/41/11 90/50/11 94/105/11
f 87/52/106 91/127/106 94/53/106
f 72/6/80 86/40/104 99/42/103
f 99/108/103 96/37/57 95/109/7
f 52/43/58 86/45/104 100/55/108
f 88/46/10 87/48/10 52/57/58
f 106/59/109 109/67/124 110/60/110
f 102/63/112 103/62/169 106/59/113
f 108/64/115 109/67/170 106/59/116
f 108/68/118 104/66/171 107/70/119
f 111/69/121 102/128/172 105/61/122
f 107/70/126 104/129/173 111/69/121
f 117/73/35 118/71/35 119/111/35
f 97/89/107 122/88/128 121/112/37
f 100/55/108 115/114/35 114/74/35
f 112/75/127 116/83/35 115/76/35
f 122/10/128 113/20/35 116/11/35
f 114/78/9 118/130/9 117/79/9
f 115/114/12 119/81/12 118/82/12
f 116/83/11 120/131/11 119/84/11
f 113/20/10 117/120/10 120/21/10
f 112/75/127 100/77/108 72/23/80
f 122/10/128 112/12/127 29/87/31
f 114/78/35 113/80/35 122/88/128
f 127/90/129 130/97/144 131/91/130
f 123/93/132 124/132/174 127/90/133
f 129/94/135 130/97/175 127/90/136
f 129/98/138 125/96/176 128/100/139
f 132/99/141 123/133/177 126/92/142
f 128/100/146 125/134/178 132/99/141
